<mxfile host="65bd71144e">
    <diagram id="SZeSDwfdFog5iM9mrteK" name="Page-1">
        <mxGraphModel dx="533" dy="333" grid="1" gridSize="10" guides="1" tooltips="1" connect="1" arrows="1" fold="1" page="1" pageScale="1" pageWidth="827" pageHeight="1169" math="0" shadow="0">
            <root>
                <mxCell id="0"/>
                <mxCell id="1" parent="0"/>
                <mxCell id="2" value="" style="shape=table;html=1;whiteSpace=wrap;startSize=0;container=1;collapsible=0;childLayout=tableLayout;columnLines=1;rowLines=0;" vertex="1" parent="1">
                    <mxGeometry x="100" y="70" width="230" height="40" as="geometry"/>
                </mxCell>
                <mxCell id="3" value="" style="shape=tableRow;horizontal=0;startSize=0;swimlaneHead=0;swimlaneBody=0;top=0;left=0;bottom=0;right=0;collapsible=0;dropTarget=0;fillColor=none;points=[[0,0.5],[1,0.5]];portConstraint=eastwest;" vertex="1" parent="2">
                    <mxGeometry width="230" height="40" as="geometry"/>
                </mxCell>
                <mxCell id="4" value="0" style="shape=partialRectangle;html=1;whiteSpace=wrap;connectable=0;fillColor=none;top=0;left=0;bottom=0;right=0;overflow=hidden;" vertex="1" parent="3">
                    <mxGeometry width="77" height="40" as="geometry">
                        <mxRectangle width="77" height="40" as="alternateBounds"/>
                    </mxGeometry>
                </mxCell>
                <mxCell id="5" value="0" style="shape=partialRectangle;html=1;whiteSpace=wrap;connectable=0;fillColor=none;top=0;left=0;bottom=0;right=0;overflow=hidden;" vertex="1" parent="3">
                    <mxGeometry x="77" width="76" height="40" as="geometry">
                        <mxRectangle width="76" height="40" as="alternateBounds"/>
                    </mxGeometry>
                </mxCell>
                <mxCell id="6" value="0" style="shape=partialRectangle;html=1;whiteSpace=wrap;connectable=0;fillColor=none;top=0;left=0;bottom=0;right=0;overflow=hidden;" vertex="1" parent="3">
                    <mxGeometry x="153" width="77" height="40" as="geometry">
                        <mxRectangle width="77" height="40" as="alternateBounds"/>
                    </mxGeometry>
                </mxCell>
                <mxCell id="15" value="Encodage au pif&lt;br&gt;000 -&amp;gt; a&lt;br&gt;001 -&amp;gt; -&lt;br&gt;010 -&amp;gt; x&lt;br&gt;011 -&amp;gt; 10&lt;br&gt;100 -&amp;gt; false&lt;br&gt;101 -&amp;gt; ?&lt;br&gt;110 -&amp;gt; ;&lt;br&gt;111 -&amp;gt; b" style="shape=ext;double=1;whiteSpace=wrap;html=1;aspect=fixed;" vertex="1" parent="1">
                    <mxGeometry x="90" y="320" width="150" height="150" as="geometry"/>
                </mxCell>
                <mxCell id="16" value="Encodage des entiers non signés&lt;br&gt;000 -&amp;gt; 0&lt;br&gt;001 -&amp;gt; 1&lt;br&gt;010 -&amp;gt; 2&lt;br&gt;011 -&amp;gt; 3&lt;br&gt;100 -&amp;gt; 4&lt;br&gt;101 -&amp;gt; 5&lt;br&gt;110 -&amp;gt; 6&lt;br&gt;111 -&amp;gt; 7" style="shape=ext;double=1;whiteSpace=wrap;html=1;aspect=fixed;" vertex="1" parent="1">
                    <mxGeometry x="60" y="130" width="159" height="159" as="geometry"/>
                </mxCell>
                <mxCell id="17" value="Encodage des entiers signés&lt;br&gt;000 -&amp;gt; 0&lt;br&gt;001 -&amp;gt; 1&lt;br&gt;010 -&amp;gt; 2&lt;br&gt;011 -&amp;gt; 3 -&amp;gt; (2^3) / 2 - 1&lt;br&gt;100 -&amp;gt; -4 -&amp;gt;&amp;nbsp; -(2^3) / 2&lt;br&gt;101 -&amp;gt; -3&lt;br&gt;110 -&amp;gt; -2&lt;br&gt;111 -&amp;gt; -1" style="shape=ext;double=1;whiteSpace=wrap;html=1;aspect=fixed;" vertex="1" parent="1">
                    <mxGeometry x="250" y="130" width="210" height="210" as="geometry"/>
                </mxCell>
            </root>
        </mxGraphModel>
    </diagram>
</mxfile>